# xmcd
#
# Track frame offsets: 
#        150
#        22592
#        45477
#        60237
#        95772
#        112505
#        140132
#        176285
#        194772
#        212212
#
# Disc length: 3086 seconds
#
# Revision: 0
# Processed by: cddbd v1.5.2PL0 Copyright (c) Steve Scherf et al.
# Submitted via: ExactAudioCopy v0.95a5
#
DISCID=7f0c0c0a
DTITLE=Heavy Blues Chevy - Blues n' Jected!
DYEAR=1999
DGENRE=Blues
TTITLE0=Old Enough To Know Better
TTITLE1=South Town Woman
TTITLE2=She Likes To Bangie Real Law
TTITLE3=The Walk
TTITLE4=Baby
TTITLE5=Marie, Marie
TTITLE6=Towed Away
TTITLE7=Blues N' Jacted
TTITLE8=Thang Called Love
TTITLE9=Supply And Demand
EXTD=
EXTT0=
EXTT1=
EXTT2=
EXTT3=
EXTT4=
EXTT5=
EXTT6=
EXTT7=
EXTT8=
EXTT9=
PLAYORDER=
